<?xml version="1.0" encoding="UTF-8"?>
<svg width="24px" height="24px" viewBox="0 0 24 24" version="1.1" xmlns="http://www.w3.org/2000/svg" xmlns:xlink="http://www.w3.org/1999/xlink">
    <title>download</title>
    <defs>
        <filter id="filter-1">
            <feColorMatrix in="SourceGraphic" type="matrix" values="0 0 0 0 0.047059 0 0 0 0 0.521569 0 0 0 0 0.933333 0 0 0 1.000000 0"></feColorMatrix>
        </filter>
    </defs>
    <g id="机房可视化" stroke="none" stroke-width="1" fill="none" fill-rule="evenodd">
        <g filter="url(#filter-1)" id="download">
            <g>
                <rect id="矩形" fill="#000000" fill-rule="nonzero" opacity="0" x="0" y="0" width="24" height="24"></rect>
                <path d="M11.8523437,15.4921875 C11.9273437,15.5882812 12.0726563,15.5882812 12.1476562,15.4921875 L14.7726562,12.1710937 C14.86875,12.0492187 14.7820312,11.86875 14.625,11.86875 L12.8882812,11.86875 L12.8882812,3.9375 C12.8882812,3.834375 12.8039062,3.75 12.7007812,3.75 L11.2945312,3.75 C11.1914062,3.75 11.1070312,3.834375 11.1070312,3.9375 L11.1070312,11.8664062 L9.375,11.8664062 C9.21796875,11.8664062 9.13125,12.046875 9.22734375,12.16875 L11.8523437,15.4921875 Z M20.578125,14.671875 L19.171875,14.671875 C19.06875,14.671875 18.984375,14.75625 18.984375,14.859375 L18.984375,18.46875 L5.015625,18.46875 L5.015625,14.859375 C5.015625,14.75625 4.93125,14.671875 4.828125,14.671875 L3.421875,14.671875 C3.31875,14.671875 3.234375,14.75625 3.234375,14.859375 L3.234375,19.5 C3.234375,19.9148438 3.56953125,20.25 3.984375,20.25 L20.015625,20.25 C20.4304688,20.25 20.765625,19.9148438 20.765625,19.5 L20.765625,14.859375 C20.765625,14.75625 20.68125,14.671875 20.578125,14.671875 Z" id="形状" fill="#000" fill-rule="nonzero"></path>
            </g>
        </g>
    </g>
</svg>